/vscmnt/brussel_pixiu_data/_data_brussel/112/vsc11236/PredSimResults/SUBJ06mtu3D/weighted-LRposFixed/expIG/worker_02.mot
version=1
nRows=4
nColumns=50
inDegrees=yes
endheader
                time	         pelvis_tilt	         pelvis_list	     pelvis_rotation	           pelvis_tx	           pelvis_ty	           pelvis_tz	       hip_flexion_r	     hip_adduction_r	      hip_rotation_r	        knee_angle_r	       ankle_angle_r	         mtp_angle_r	       hip_flexion_l	     hip_adduction_l	      hip_rotation_l	        knee_angle_l	       ankle_angle_l	         mtp_angle_l	    lumbar_extension	      lumbar_bending	     lumbar_rotation	 ercspn_r/activation	 intobl_r/activation	 extobl_r/activation	    abd_r/activation	    add_r/activation	hamstrings_r/activation	bifemsh_r/activation	glut_max_r/activation	iliopsoas_r/activation	rect_fem_r/activation	  vasti_r/activation	gastroc_r/activation	 soleus_r/activation	tib_ant_r/activation	 ercspn_l/activation	 intobl_l/activation	 extobl_l/activation	    abd_l/activation	    add_l/activation	hamstrings_l/activation	bifemsh_l/activation	glut_max_l/activation	iliopsoas_l/activation	rect_fem_l/activation	  vasti_l/activation	gastroc_l/activation	 soleus_l/activation	tib_ant_l/activation	
          2.00000002	         -8.72521261	          8.30651695	        -14.40912044	          2.22000002	          0.96481685	          0.01241293	         20.81813865	         -4.25471053	          2.67394429	        -24.90036795	         14.82519179	          0.49139477	         31.84352968	          9.75352040	          0.54194515	        -45.57607490	         -4.89041518	         21.89320196	         -1.58842997	         -4.10498627	         -9.35317999	          0.05239509	          0.17740130	          0.03816722	          0.17527316	          0.09646255	          0.22958913	          0.01361235	          0.02555153	          0.01777778	          0.07079848	          0.02652634	          0.01000000	          0.01000005	          0.34850444	          0.10199819	          0.14487361	          0.14959937	          0.03266843	          0.01000000	          0.01000000	          0.22741815	          0.02123919	          0.40531178	          0.90491803	          0.01812455	          0.07481886	          0.06074028	          0.36895641	
          2.02000002	         -8.59579478	          8.14779884	        -14.12516646	          2.23668847	          0.95880977	          0.01338500	         18.95990743	         -4.37030551	          2.43190277	        -23.31218652	         16.21638548	          1.33370929	         35.23356682	          9.86013882	         -0.11321408	        -51.82988233	         -2.42361623	         17.01298086	         -2.41665357	         -4.13579422	         -9.08672469	          0.03929632	          0.13305103	          0.02862542	          0.24864070	          0.07234691	          0.17596690	          0.01020933	          0.01916462	          0.01333334	          0.05309931	          0.13258405	          0.12885731	          0.21232792	          0.26137833	          0.10957461	          0.10865522	          0.19483074	          0.02450132	          0.01000001	          0.01000000	          0.17056365	          0.01592939	          0.30398384	          0.95925056	          0.01359342	          0.05611414	          0.04555521	          0.34904460	
          2.04000002	         -8.60022121	          7.87983712	        -13.85605085	          2.25324239	          0.95162190	          0.01459711	         17.19816128	         -4.41341536	          1.95093961	        -22.68006756	         18.27988439	          3.31295085	         38.17382445	          9.48834356	         -0.99742809	        -54.98389446	          0.14524228	         13.10762969	         -3.19220391	         -4.06953294	         -8.79707357	          0.02947225	          0.09978828	          0.02146908	          0.27690258	          0.05426019	          0.13197517	          0.01000008	          0.10423099	          0.01000002	          0.15293997	          0.18125709	          0.17382680	          0.28057966	          0.19603375	          0.18514041	          0.08149142	          0.14612306	          0.01837599	          0.01333328	          0.01000000	          0.12792275	          0.01194705	          0.23664331	          0.78758303	          0.01019507	          0.04208561	          0.03416641	          0.30844414	
          2.06000002	         -8.68405103	          7.46832940	        -13.59786604	          2.27005011	          0.94582992	          0.01606168	         15.72988965	         -4.26289701	          1.34622276	        -22.43187732	         19.84104264	          5.27995585	         40.31212942	          8.72033623	         -1.90968682	        -54.94863892	          2.27041531	          9.99727923	         -3.93430637	         -3.89853302	         -8.50762863	          0.06914072	          0.07484121	          0.01610184	          0.28254272	          0.04069515	          0.09898138	          0.01000019	          0.07817325	          0.01000004	          0.20958889	          0.21325113	          0.21952448	          0.34073777	          0.14702531	          0.20674718	          0.06196461	          0.10959230	          0.01378200	          0.01000001	          0.01000000	          0.09594207	          0.01000002	          0.17748288	          0.59068727	          0.02663375	          0.03156421	          0.02562481	          0.28020329	
